<svg width="57" height="63" viewBox="0 0 57 63" fill="none" xmlns="http://www.w3.org/2000/svg">
<path d="M22.3054 30.5515H3.97936L15.708 2.48656H27.7508L22.3054 30.5515ZM46.0768 30.5515H27.8555L39.5842 2.48656H51.5222L46.0768 30.5515Z" fill="#B1B9FF"/>
<path d="M22.9337 5.21959L15.2891 19.4615L10.472 20.8229C11.0305 19.7757 11.6588 18.9379 12.357 18.3096C13.0551 17.6115 13.8579 17.2624 14.7655 17.2624C16.7901 17.2624 18.6053 18.1002 20.211 19.7757C21.8865 21.3814 22.7242 23.4758 22.7242 26.0589C22.7242 28.7816 21.7818 31.1203 19.8968 33.0751C18.0817 35.0299 15.8127 36.0073 13.09 36.0073C10.5069 36.0073 8.23797 35.0648 6.2832 33.1798C4.39824 31.2251 3.45576 28.8514 3.45576 26.0589C3.45576 24.9419 3.6652 23.6503 4.08408 22.1842C4.57277 20.7182 5.44544 18.7983 6.70208 16.4246L15.0797 0.926073L22.9337 5.21959ZM46.4957 5.21959L38.8511 19.4615L34.1387 20.8229C34.6274 19.7757 35.2208 18.9379 35.919 18.3096C36.6869 17.6115 37.4898 17.2624 38.3275 17.2624C40.3521 17.2624 42.2022 18.1002 43.8777 19.7757C45.5532 21.3814 46.391 23.4758 46.391 26.0589C46.391 28.7816 45.4485 31.1203 43.5635 33.0751C41.7484 35.0299 39.4794 36.0073 36.7567 36.0073C34.1736 36.0073 31.9047 35.0648 29.9499 33.1798C28.065 31.2251 27.1225 28.8514 27.1225 26.0589C27.1225 24.9419 27.3319 23.6503 27.7508 22.1842C28.1697 20.7182 29.0074 18.7983 30.2641 16.4246L38.7464 0.926073L46.4957 5.21959Z" fill="#B1B9FF"/>
</svg>
